<?xml version="1.0" encoding="utf-8"?>
<!-- Generator: Adobe Illustrator 25.3.0, SVG Export Plug-In . SVG Version: 6.00 Build 0)  -->
<svg version="1.1" id="Layer_1" xmlns="http://www.w3.org/2000/svg" xmlns:xlink="http://www.w3.org/1999/xlink" x="0px" y="0px"
	 viewBox="0 0 972 513" style="enable-background:new 0 0 972 513;" xml:space="preserve">
<style type="text/css">
	.st0{fill:#6ABBE9;}
	.st1{fill:#FFFFFF;}
	.st2{fill:#1167A8;}
	.st3{enable-background:new    ;}
	.st4{fill:#09395D;}
	.st5{fill:#0F5992;}
	.st6{fill:#356980;}
	.st7{fill:#4284A1;}
	.st8{fill:#5BB5DD;}
	.st9{fill:#366F00;}
	.st10{fill:#438800;}
	.st11{fill:#387200;}
	.st12{fill:#5EC000;}
	.st13{fill:#377000;}
	.st14{fill:#5FC200;}
</style>
<g>
	<g>
		<path class="st0" d="M2054.4,1398.8c1.9,0,1.9-3,0-3C2052.5,1395.8,2052.5,1398.8,2054.4,1398.8L2054.4,1398.8z"/>
	</g>
</g>
<g>
	
		<image style="overflow:visible;opacity:0.4;" width="989" height="526" xlink:href="8939341970F52B7D.png"  transform="matrix(1 0 0 1 4.1905 -5.8095)">
	</image>
	<g>
		<path class="st1" d="M941.9,282.7c1.5,4.8,1.5,10.7-0.2,19.7l-9.1,49h-88.7l1-5.2c-8.3,4.7-17.8,7-28.4,7c-14,0-23.2-4.4-29.1-9.5
			l-1.4,7.7h-41.1c-4.8,0.8-9.9,1.2-14.8,1.2c-11.4,0-20-3-25.6-8.8c-0.5-0.6-1.1-1.2-1.6-1.9c-0.8,0.7-1.7,1.3-2.5,2
			c-2.1,1.5-4.2,2.8-6.5,3.9l4.4,0.4l-3.4,15c6.3-2.4,13.3-3.6,20.6-3.6c13.8,0,23,4.3,28.8,9.1l1.4-7.5h38.7c3.1-1,6.4-1.5,9.9-1.5
			c1.3,0,2.9,0.1,5,0.3l13.5,1.4l-8.7,47.3l-13.5-3.5c-2.8,0-3.3,0.8-3.7,2.8l-7.1,37.9h-50.1l0.7-3.7c-7.5,3.7-16.3,5.5-26.2,5.5
			c-10.5,0-18.4-2.3-24.2-5.5c-2.5,7.1-7.5,13.2-14.9,17.8c-8.3,5.1-20.5,7.5-38.7,7.5c-20.3,0-33.1-3.6-40.1-11.6
			c-2.6-2.9-4.2-6.4-4.9-10.1h-20.4c-4.1,1.2-8.5,1.8-13.1,1.8c-7.8,0-13.7-1.6-18-3.8l-114.5,2c-4.1,1.2-8.5,1.8-13.1,1.8
			c-8.4,0-14.4-1.8-18.8-4.3l-0.4,2.5H263.1l14.6-77.8l-48.2-9.6l3.2-14.3c2.2-10,3.2-19.6,2.9-28.7l-31.5,11.2l44.7,119.4l-64,0.1
			l-21.5-63.2l-25.1,63H78l34.4-89.2l-56.3,19.7l-21.9-57.1L214,258c-2.1-2.6-4.4-5.2-6.8-7.7l-10.5-10.8l47.2-41l10.4,10.8
			c10.9,11.3,19.8,23.6,26.8,36.4l29.9-56.8c-11-15-16.8-31.6-16.8-48.3C294.2,75.8,380.9,23,487.4,23s193.1,52.8,193.1,117.6
			c0,44.8-41.4,83.8-102,103.7h9.6l-4.1,22.1H657l-1,5c7.7-4.3,16.2-6.4,25.5-6.4c6.8,0,12.3,1.2,16.7,2.8l10.1-1.4l4.1-19.8
			l41.8-0.7l0.7-3.5h51.1l-4.4,24l-1,5.7c1.7-1,2.6-1.4,3.4-1.8c1.6-0.7,2.9-1.3,4.3-1.8c1.1-0.4,2.4-0.9,3.6-1.2
			c2-0.6,4.1-1,6.1-1.4c3.9-0.6,7.3-0.9,10.8-0.9c4.2,0,8.2,0.4,11.9,1.2c6.8,1.4,12.7,4.2,17.5,8l1.4-7.8h42.1
			c3.4-0.9,7.1-1.4,10.8-1.4c7.1,0,13.2,1.5,18.1,4.4C936.1,272.6,940,277.2,941.9,282.7z M647.6,359.7c2.3-3.5,5.2-6.3,8.5-8.4
			c-5.8-1.7-10.3-4.3-13.7-6.9l-1.3,7h-41.9c-3.9,1.2-8,1.8-12.3,1.8c-7.1,0-13-1.6-17.8-4.7l-0.5,2.9H528
			c-3.6,1.2-7.4,1.8-11.4,1.8c-11.4,0-21-4.7-26.9-13.3l-1.4,1.3c-10,8-22,12.1-35.9,12.1c-18.4,0-28.6-7.7-33.8-14.2
			c-2-2.5-3.6-5.1-4.9-7.9l-3.8,20.3h-9.2l-2.6,13.9c7.2-3.5,16.5-5.8,28.6-5.8c6.2,0,11.9,0.7,17,1.9c4.6,1.1,8.6,2.8,11.9,5l1-5.2
			H498c3.6-1.1,7.4-1.7,11.5-1.7c7.1,0,13.1,1.5,18.1,4.4c3.1,1.9,5.7,4.2,7.7,6.8c7.8-6.4,19.5-11.2,37.1-11.2
			c6.2,0,12,0.7,17.1,1.9c6.5,1.5,11.7,4.2,15.5,7.9l1.4,1.5c2-1.7,4.2-3.2,6.7-4.6c8.1-4.4,18.3-6.7,30.2-6.7
			C644.7,359.5,646.2,359.6,647.6,359.7 M389.6,264.5c0.3,0.7,0.6,1.3,0.8,1.9h24.6c2.9-0.9,6-1.3,9.3-1.3c1.2,0,2.8,0.1,5,0.3
			l13.6,1.4l-0.5,2.4c6.8-2.8,14.3-4.3,22.4-4.3c17.8,0,28,7.1,33.4,13.2l1.3-1.4c8.2-8.3,18.4-12.6,29.4-12.6
			c1.7,0,3.3,0.1,4.9,0.3l1.8-9.9c-15.4,2.5-31.6,3.7-48.2,3.7c-40.5,0-79-7.3-111.6-21.4l-23.1,7.6c8.3,0.5,15.4,1.9,21.1,4.6
			C380.7,252.1,386.1,257.5,389.6,264.5 M361.8,340.7l4.4-23.4c-6.8,3-14.5,4.6-22.9,4.6h-4.4l-3.5,18.8h4.4l0.8,8.2l3.8-8.2H361.8
			 M798.8,282.6l1.1-6.4L798.8,282.6L798.8,282.6"/>
	</g>
</g>
<g>
	<g>
		<path class="st2" d="M500.1,333.9c3.8,5.9,9.8,8.9,17.7,8.9c6.7,0,12.4-2.3,16.9-6.5l-0.9,4.8h26.4l15.7-85.4h-27.6l-4.5,24.8
			c-3.4-3.5-8-5-13.7-5c-8,0-15,3.2-21,9.2c-5.9,5.9-9.8,14.1-11.6,24.2C495.5,319.7,496.3,328.1,500.1,333.9z M525.7,310.9
			c0.9-4.9,2.2-9.2,3.8-12.5c1.5-3,3.5-4.5,6.3-4.5c1.7,0,2.9,0.4,3.6,1.2c0.9,1.1,1.2,2.9,0.7,5.6l-2.8,15.2
			c-0.5,2.9-1.6,5.1-3.1,6.5c-1.5,1.3-3,2-4.7,2c-1.4,0-2.4-0.4-3.1-1.2C525.3,321.8,524.2,318.6,525.7,310.9z"/>
		<path class="st2" d="M647.8,333.5c5.3,6.2,13.1,9.3,23.3,9.3c9,0,16.8-2.4,23.2-7c6.3-4.6,10.7-10.7,13.2-18.1l0.5-1.5l-23.9-2
			l-0.3,1c-1.8,5.5-4.6,8.2-8.5,8.2c-3.3,0-4.2-1.6-4.5-2.7c-0.7-2.2-0.6-5.8,0.2-10.6c1-5.6,2.4-9.6,3.9-11.8c1.4-2,3.2-3,5.5-3
			c1.2,0,2.2,0.3,2.9,1c1.3,1.3,1.8,3.7,1.7,7.4l-0.1,1.4l25-2l0.1-1.7c0.2-2.2,0.1-3-0.3-6.9h5.8l-3.3,18.4l-1.4,7.5
			c-1.4,7.3-0.4,13,3,16.4c3.3,3.4,9.1,5.2,17.2,5.2c4.9,0,10-0.4,15.2-1.4l0.9-0.1l3.7-19.9l-2,0.5c-2.8,0.7-5.2,1-7.1,1
			c-1.1,0-2.1-0.2-3-0.7c0,0-0.8-1.1-0.1-4.8l4-22.2h12.8l3.4-16.9H746l3.8-20.4l-3.2,0.1l-23.5,0.4l-4.1,20h-9.6l-2,10.9
			c-1-1.8-2.2-3.4-3.8-5c-4.8-4.8-11.8-7.3-20.8-7.3c-10,0-18.9,3.2-26.3,9.4c-7.4,6.3-12.1,14.3-13.9,24
			C640.8,319.4,642.6,327.3,647.8,333.5z"/>
		<path class="st2" d="M854.9,285.9c-3.8-4.3-9-7.2-15.4-8.6c-2.9-0.6-6-0.9-9.4-0.9c-2.8,0-5.5,0.2-8.2,0.7c-0.2,0-0.3,0.1-0.5,0.1
			c-1.6,0.3-3.2,0.7-4.8,1.1c-1,0.3-1.9,0.6-2.8,0.9c-1,0.4-2.1,0.8-3.1,1.3c-0.1,0-0.2,0.1-0.3,0.1c-0.7,0.3-1.4,0.7-2,1
			c-2.3,1.2-4.4,2.6-6.5,4.3c-7.9,6.3-12.8,14.2-14.5,23.7c-1.6,8.8,0.2,16.7,5.6,23.3c5.4,6.6,13.7,10,24.7,10
			c11.1,0,20.7-3.2,28.5-9.5c7.9-6.3,12.7-14.3,14.5-23.7C862.4,300.2,860.5,292.2,854.9,285.9z M831.2,308.8
			c-0.8,4.1-1.9,8.1-3.5,11.9c-1.4,3.4-3.7,5-7,5c-2.2,0-3.6-0.8-4.4-2.6c-0.6-1.4-1-4.8,0.6-13.3c1.1-5.8,2.5-10,4.2-12.4
			c1.6-2.3,3.6-3.4,6-3.4c2.6,0,4,0.9,4.6,2.9C832.4,299.2,832.2,303.2,831.2,308.8z"/>
		<path class="st2" d="M932.1,286.5c-1-3-3.1-5.5-6.3-7.3c-3.1-1.8-7.2-2.8-12.1-2.8c-7.4,0-13.5,2.3-18.2,6.7l1-5.4h-18.8h-7.3
			l-1,5.2l-10.8,58.1h27.9l7-37.7c1-5.5,3.4-8,7.3-8c1.2,0,2.1,0.4,2.7,1c0.1,0.1,0.8,0.9,0.1,4.8l-7.4,39.9h27.9l7.5-40.1
			C932.9,294,933.1,289.4,932.1,286.5z"/>
		<polygon class="st2" points="353,352.1 334.7,392.1 330.6,352.1 293.6,352.1 277.9,435.5 300.5,435.5 309.9,384.9 314.8,435.5 
			333.7,435.5 356.4,385.7 347.2,435.5 374.5,435.5 390.2,352.1 		"/>
		<path class="st2" d="M455.3,398.7c1.3-6.8,1.7-11.4,1.2-13.9c-0.5-2.6-1.9-5-4.2-7.3c-2.3-2.2-5.7-3.9-10.1-5
			c-4.3-1-9.1-1.5-14.3-1.5c-19.6,0-32.5,6.7-38.4,20l-0.7,1.6l25.5,2.3l0.3-1c1.3-3.9,4.5-5.8,9.7-5.8c2.1,0,3.7,0.4,4.6,1
			c0.7,0.6,0.9,2,0.5,4.2l-0.1,0.4c-15.5,0.9-26.9,3.3-33.8,7.3c-7.2,4.2-11.5,9.8-12.8,16.6c-1,5.1,0.3,9.8,3.6,13.7
			c3.3,4,9.1,6,17.1,6c8.1,0,15.1-2.5,20.6-7.4c-0.2,1.7-0.2,3.1-0.2,4.6l0.1,0.9h27l-0.3-1.2c-0.7-3.1-0.6-6.8,0.3-11.3
			L455.3,398.7z M426.5,408.9c-0.9,4.9-2.3,8-4.2,9.3c-2,1.4-4.1,2-6.5,2c-1.8,0-3-0.4-3.6-1c-0.5-0.6-0.7-1.6-0.4-3
			c0.8-4.5,5.9-7.4,15-8.6L426.5,408.9z"/>
		<path class="st2" d="M529,381.1c-1-3-3.1-5.5-6.3-7.3c-3.1-1.8-7.2-2.8-12.1-2.8c-7.4,0-13.5,2.4-18.2,6.8l1-5.3h-26.1l-11.8,63
			h27.9l7-37.6c1-5.5,3.4-8,7.3-8c1.2,0,2.1,0.4,2.7,1c0.1,0.1,0.8,0.8,0.1,4.7l-7.4,39.8h27.9l7.5-40
			C529.8,388.5,530,384,529,381.1z"/>
		<path class="st2" d="M674,377.1c1,0,2.6,0.1,4.8,0.2l2.3,0.1l4.2-18.9l-1.5-0.1c-3.8-0.3-6.8-0.5-9-0.5c-9.4,0-16,4.8-19.5,14.2
			c-3.3-0.7-7-1-11-1c-9.9,0-18.1,1.8-24.5,5.2c-6.5,3.6-10.4,8.6-11.6,15.1c-1.2,6.3,0.8,11.1,5.9,14.3c-7.6,3.2-12,7.8-13.1,13.6
			c-0.7,3.5,0.4,6.7,3.1,9.4c-3.5,1.5-6.2,3.6-8,6.2l0-0.1c-0.7-3.1-0.6-7,0.3-11.5l4.5-24.5c1.3-6.8,1.7-11.4,1.2-13.9
			c-0.5-2.6-1.9-5-4.2-7.3c-2.3-2.2-5.7-3.9-10.1-5c-4.3-1-9.1-1.5-14.3-1.5c-19.6,0-32.5,6.7-38.4,20l-0.7,1.6l25.5,2.3l0.3-1
			c1.3-3.9,4.5-5.8,9.7-5.8c2.1,0,3.7,0.4,4.6,1c0.7,0.6,0.9,2,0.5,4.2l-0.1,0.4c-15.5,0.9-26.9,3.3-33.8,7.3
			c-7.2,4.2-11.5,9.8-12.8,16.6c-1,5.1,0.3,9.8,3.6,13.7c3.3,4,9.1,6,17.1,6c8.1,0,15.1-2.5,20.6-7.4c-0.2,1.7-0.2,3.1-0.2,4.6
			l0.1,0.9h25.8c-0.7,1.9-1.2,3-1.5,4.6c-0.7,3.6,0.1,6.9,2.3,9.4c4.5,5.1,14.7,7.7,31.3,7.7c15.6,0,26.2-1.9,32.4-5.7
			c6.2-3.9,10-9,11.1-15.2c1-5.3-0.1-10-3.1-13.9c-3.1-4-8.6-6.2-16.5-6.5l-20.5-0.8c-2.7-0.1-3.4-0.7-3.6-0.8
			c0-0.1-0.1-0.2-0.1-0.5c0.3-1.6,3.1-2,5.4-2c0.1,0,1.1,0,2.8,0.1c3,0.1,3.2,0.1,3.3,0.1c9.1,0,16.8-1.6,22.8-4.9
			c6.1-3.3,9.9-8.4,11.1-15c1-5.3-0.4-10-4.1-13.9C669.3,377.5,671,377.1,674,377.1z M572.1,408.9c-0.9,4.9-2.3,8-4.2,9.3
			c-2,1.4-4.1,2-6.5,2c-1.8,0-3-0.4-3.6-1c-0.5-0.6-0.7-1.6-0.4-3c0.8-4.5,5.9-7.4,15-8.6L572.1,408.9z M641.8,436.1
			c3.1,0.1,3.6,0.7,3.6,0.7c0.3,0.4,0.4,1,0.3,1.6c-0.2,1.1-0.9,1.9-2.2,2.6c-1,0.5-3.5,1.1-9.7,1.1c-5.4,0-9.7-0.3-12.8-1
			c-3.5-0.8-3.2-2.4-3.1-3.1c0.1-0.7,0.5-2.8,5.9-2.8c0.9,0,1.8,0,2.7,0.1L641.8,436.1z M646.9,391.6c-0.8,4.3-3.2,6.4-7.4,6.4
			c-2.1,0-3.6-0.5-4.4-1.3c-0.8-0.9-1-2.4-0.6-4.5c0.8-4.6,3.3-6.7,7.6-6.7c2,0,3.4,0.4,4.2,1.3
			C647.1,387.7,647.3,389.4,646.9,391.6z"/>
		<path class="st2" d="M795.4,371.1c-6.9,0-12.5,2.8-16.7,8.2l1.3-6.7h-23.7l-11.8,63h26.9l5.4-28.9c1.5-8.3,6-12.1,13.7-12.1
			c1.3,0,2.7,0.3,4.3,0.6l1.4,0.4l4.5-24.1l-1.4-0.1C797.6,371.2,796.3,371.1,795.4,371.1z"/>
		<path class="st2" d="M330.5,311.5h13.9c9.8,0,18.3-2.5,25.1-7.4c6.9-5,11.1-11.6,12.6-19.8c1-5.4,0.4-10.3-1.7-14.7
			c-2.2-4.4-5.6-8.2-10.3-10.3c-4.6-2.1-11.5-3.6-21-3.6c-9.5,0-38,0-38,0l-15.7,85.4H325L330.5,311.5z M336.4,277.8h8.6
			c3.7,0,6.1,0.8,7.3,2.2c0.9,1,1.1,2.2,0.8,4.1c-0.9,4.8-4.8,7-11.9,7h-7.3L336.4,277.8z"/>
		<path class="st2" d="M401.5,341.1l5.4-28.9c1.5-8.3,6-12.2,13.7-12.2c1.3,0,2.7,0.2,4.3,0.6l1.1,0.3c-1.2,2.7-2.1,5.6-2.6,8.6
			c-1.6,8.8,0.2,16.7,5.6,23.3c5.4,6.6,13.7,10,24.7,10c11.1,0,20.7-3.2,28.5-9.5c7.9-6.3,12.7-14.3,14.5-23.7
			c1.7-9.4-0.2-17.4-5.7-23.7c-5.6-6.3-13.9-9.5-24.9-9.5c-10.8,0-20.2,3.2-28.1,9.5c-5,4-8.8,8.6-11.3,13.9l4.2-22.8l-1.4-0.1
			c-1.6-0.2-2.8-0.2-3.8-0.2c-6.9,0-12.5,2.7-16.7,8.1l1.3-6.8h-23.7l-11.8,63.3H401.5z M452.9,309.8c1.1-5.8,2.5-10,4.2-12.4
			c1.6-2.3,3.6-3.4,6-3.4c2.6,0,4,0.9,4.6,2.9c0.7,2.3,0.5,6.3-0.5,11.9c-0.8,4.1-1.9,8.1-3.5,11.9c-1.4,3.4-3.7,5-7,5
			c-2.2,0-3.6-0.8-4.4-2.6C451.7,321.7,451.3,318.2,452.9,309.8z"/>
		<path class="st2" d="M573.7,337.5c0.6,0.7,1.3,1.4,2.1,2c3,2.2,7.1,3.4,12.2,3.4c8.3,0,14.9-2.8,19.8-7.8l-1.2,6.1h26.1l11.8-63.3
			h-27.6l-7,37.8c-0.4,2.4-1.4,4.2-2.8,5.5c-1.4,1.2-2.9,1.8-4.7,1.8c-0.8,0-2.3-0.1-2.6-0.8c-0.2-0.4-0.5-1.5,0-4.3l7.4-40h-27.9
			l-8.3,44.8C569.8,329,570.7,334,573.7,337.5z"/>
		<g>
			<polygon class="st2" points="749.6,341.1 777.5,341.1 788.2,283.8 788.8,280.3 789.2,278.4 789.3,277.8 788.3,277.8 787.7,277.8 
				786.8,277.8 778.8,277.8 770.7,277.8 765,277.8 761.4,277.8 760.6,281.7 			"/>
			<polygon class="st2" points="793.7,253.7 765.7,253.7 762.4,272.2 766.6,272.2 790.4,272.2 			"/>
		</g>
		<g>
			<path class="st2" d="M708.8,419.1c-3.2,0-5.3-1.1-6-2.5c-0.8-1.5-1-3.2-0.6-7.1h43l0.2-0.7c0.3-1.5,0.6-2.5,0.7-3.4
				c2-10.6,0.2-19-5.3-25.3c-5.5-6.2-13.7-9.3-24.3-9.3c-10.9,0-20.4,3.3-28.1,9.8c-7.7,6.5-12.5,14.5-14.3,24
				c-1.7,9.2,0.3,17,5.9,23.3c5.6,6.2,14.1,9.4,25.3,9.4c10,0,18.4-2.2,25.1-6.6c4.6-3,8.2-6.5,10.9-10.3l-23-7.2
				C716.5,417.2,713.4,419.1,708.8,419.1z M714.1,388.2c2.2,0,3.8,0.8,5,2c0.7,0.7,1.4,0.9,0.9,6.4h-15.1
				C706.2,389.1,709.3,388.2,714.1,388.2z"/>
		</g>
	</g>
</g>
<g>
	<g>
		<g class="st3">
			<g>
				<rect x="467.2" y="164.5" class="st4" width="78" height="0"/>
			</g>
			<g>
				<polygon class="st5" points="467.2,95.7 467.2,164.5 545.2,164.5 545.2,185 444,185 444,95.7 				"/>
			</g>
			<g>
				<rect x="444" y="95.7" class="st4" width="23.2" height="0"/>
			</g>
		</g>
	</g>
</g>
<g>
	<g>
		<g class="st3">
			<g>
				<rect x="465.3" y="121" class="st6" width="58.6" height="0"/>
			</g>
			<g>
				<rect x="512.1" y="110.2" class="st7" width="27.4" height="0"/>
			</g>
			<g>
				<polygon class="st8" points="559.8,96.7 575.3,111.4 535.7,149.1 515.8,130.2 488.9,155.9 473.4,141.2 515.8,100.7 535.7,119.7 
									"/>
			</g>
			<g>
				<rect x="556.9" y="104" class="st7" width="21.4" height="0"/>
			</g>
			<g>
				<rect x="531.1" y="108.2" class="st6" width="33.3" height="0"/>
			</g>
		</g>
	</g>
</g>
<g>
	<g>
		<g class="st3">
			<g>
				<rect x="62.4" y="387.3" class="st9" width="103.5" height="0"/>
			</g>
			<g>
				<rect x="150.9" y="378.3" class="st10" width="122.8" height="0"/>
			</g>
			<g>
				<rect x="44.9" y="295.2" class="st11" width="193.2" height="0"/>
			</g>
			<g>
				<path class="st12" d="M244.3,214.4l2.7,2.8c14.8,15.5,25.9,32.6,32.9,50.8l0.5,1.4c9.8,26.2,11.3,54.9,4.6,85.5l-0.8,3.7
					l-40.1-8l0.8-3.7c3.6-16.3,4.2-31.8,1.8-46.1l-56.1,19.9l43,115l-39.6,0l-28.8-85.1l-33.9,84.9h-36l37.2-96.6l-68.7,24l-14-36.6
					l182.9-62.2c-4.4-7.1-9.8-14-16.2-20.6l-2.7-2.8L244.3,214.4z"/>
			</g>
			<g>
				<rect x="209.2" y="227.5" class="st9" width="40.1" height="0"/>
			</g>
		</g>
	</g>
</g>
<g>
	<g>
		<g class="st3">
			<g>
				<rect x="332.6" y="208.4" class="st11" width="47.1" height="0"/>
			</g>
			<g>
				<rect x="271.1" y="221.2" class="st13" width="74.3" height="0"/>
			</g>
			<g>
				<path class="st14" d="M488.6,34.4c100.4,0,181.8,47.8,181.8,106.7c0,58.9-81.4,106.7-181.8,106.7c-42.2,0-81-8.5-111.9-22.6
					l-85.8,28.8l34.6-65.8c-12-14.2-18.7-30.2-18.7-47.2C306.8,82.2,388.2,34.4,488.6,34.4z M488.6,222.8
					c86.1,0,155.8-36.5,155.8-81.6c0-45.1-69.8-81.6-155.8-81.6c-86.1,0-155.8,36.5-155.8,81.6c0,16.6,9.5,32.1,25.8,45l-23.8,32.2
					l42.7-20C405.7,213.4,445.1,222.8,488.6,222.8"/>
			</g>
		</g>
	</g>
</g>
</svg>
